<?xml version="1.0" encoding="utf-8"?><svg viewBox="0 0 488 632" xmlns="http://www.w3.org/2000/svg" xmlns:xlink="http://www.w3.org/1999/xlink"><style>:root>svg{display:none}:root>svg:target{display:block}</style><svg fill="none" viewBox="0 0 58 30" id="400" xmlns="http://www.w3.org/2000/svg"><rect x="1" y="1" width="56" height="28" rx="8" stroke="#000" stroke-width="2"/><path d="M18.169 21.33v-2.981h-6.8L11 17.325l7.298-8.654h1.271v8.493h2.01v1.185h-2.01v2.98h-1.4zm-5.418-4.166h5.418v-6.482l-5.418 6.482zM33.094 19.66c-1.007 1.256-2.322 1.885-3.944 1.885-1.621 0-2.936-.623-3.943-1.868-.995-1.256-1.493-2.8-1.493-4.632 0-1.808.504-3.34 1.511-4.597 1.02-1.269 2.34-1.903 3.962-1.903 1.622 0 2.93.628 3.926 1.885.995 1.245 1.492 2.783 1.492 4.615 0 1.807-.503 3.346-1.51 4.615zm-6.763-.934c.737 1.017 1.69 1.526 2.856 1.526 1.167 0 2.107-.503 2.82-1.508.725-1.018 1.087-2.25 1.087-3.7 0-1.424-.368-2.645-1.106-3.662-.724-1.03-1.67-1.544-2.838-1.544-1.167 0-2.113.509-2.838 1.526-.725 1.005-1.087 2.232-1.087 3.68 0 1.425.369 2.652 1.106 3.682zM46.268 19.66c-1.008 1.256-2.322 1.885-3.944 1.885-1.622 0-2.936-.623-3.944-1.868-.995-1.256-1.492-2.8-1.492-4.632 0-1.808.503-3.34 1.51-4.597 1.02-1.269 2.341-1.903 3.963-1.903 1.622 0 2.93.628 3.925 1.885.995 1.245 1.493 2.783 1.493 4.615 0 1.807-.504 3.346-1.511 4.615zm-6.764-.934c.738 1.017 1.69 1.526 2.857 1.526 1.167 0 2.107-.503 2.82-1.508.724-1.018 1.087-2.25 1.087-3.7 0-1.424-.369-2.645-1.106-3.662-.725-1.03-1.67-1.544-2.838-1.544-1.167 0-2.113.509-2.838 1.526-.725 1.005-1.087 2.232-1.087 3.68 0 1.425.368 2.652 1.105 3.682z" fill="#000"/></svg><svg fill="none" viewBox="0 0 100 55" id="500" xmlns="http://www.w3.org/2000/svg"><path d="M84.025 2h-68.05C8.255 2 2 8.405 2 16.305v22.39C2 46.595 8.256 53 15.974 53h68.05C91.744 53 98 46.596 98 38.695v-22.39C98 8.405 91.743 2 84.025 2z" stroke-width="3" stroke="#000"/><path d="M27.913 39c-2.933 0-5.571-1.175-7.913-3.526l1.645-1.811c2.09 2.033 4.19 3.05 6.3 3.05 1.582 0 2.87-.466 3.86-1.398.993-.932 1.489-2.128 1.489-3.59 0-1.377-.517-2.499-1.551-3.367-1.013-.869-2.332-1.303-3.957-1.303-1.52 0-3.07.424-4.653 1.271l-1.677-1.112.633-10.833h12.756v2.32H24.273l-.475 7.115c1.498-.656 2.954-.985 4.368-.985 2.216 0 4.041.625 5.476 1.875 1.456 1.228 2.184 2.89 2.184 4.987 0 2.16-.739 3.918-2.216 5.274C32.133 38.322 30.234 39 27.913 39zm27.864-3.336C54.047 37.888 51.789 39 49.003 39c-2.785 0-5.043-1.101-6.773-3.304-1.71-2.224-2.564-4.956-2.564-8.196 0-3.198.865-5.909 2.595-8.133C44.013 17.122 46.281 16 49.066 16c2.786 0 5.033 1.112 6.743 3.336 1.709 2.202 2.564 4.924 2.564 8.164 0 3.198-.866 5.92-2.596 8.164zM44.16 34.012c1.267 1.8 2.902 2.7 4.907 2.7 2.004 0 3.619-.889 4.842-2.668 1.246-1.8 1.868-3.981 1.868-6.544 0-2.52-.633-4.68-1.9-6.48-1.244-1.822-2.869-2.733-4.874-2.733-2.005 0-3.63.9-4.874 2.7-1.245 1.78-1.868 3.95-1.868 6.513 0 2.52.633 4.691 1.9 6.512zm34.244 1.652C76.674 37.888 74.416 39 71.63 39c-2.785 0-5.043-1.101-6.773-3.304-1.71-2.224-2.564-4.956-2.564-8.196 0-3.198.865-5.909 2.595-8.133C66.64 17.122 68.908 16 71.693 16c2.786 0 5.033 1.112 6.743 3.336 1.709 2.202 2.563 4.924 2.563 8.164 0 3.198-.865 5.92-2.595 8.164zm-11.617-1.652c1.266 1.8 2.902 2.7 4.906 2.7 2.005 0 3.62-.889 4.843-2.668 1.246-1.8 1.868-3.981 1.868-6.544 0-2.52-.633-4.68-1.9-6.48-1.244-1.822-2.869-2.733-4.874-2.733-2.005 0-3.63.9-4.874 2.7-1.245 1.78-1.868 3.95-1.868 6.513 0 2.52.633 4.691 1.9 6.512z" fill="#000"/></svg><svg fill="none" viewBox="0 0 100 55" id="500-white" xmlns="http://www.w3.org/2000/svg"><path d="M84.025 2h-68.05C8.255 2 2 8.405 2 16.305v22.39C2 46.595 8.256 53 15.974 53h68.05C91.744 53 98 46.596 98 38.695v-22.39C98 8.405 91.743 2 84.025 2z" stroke="#fff" stroke-width="3"/><path d="M27.913 39c-2.933 0-5.571-1.175-7.913-3.526l1.645-1.811c2.09 2.033 4.19 3.05 6.3 3.05 1.582 0 2.87-.466 3.86-1.398.993-.932 1.489-2.128 1.489-3.59 0-1.377-.517-2.499-1.551-3.367-1.013-.869-2.332-1.303-3.957-1.303-1.52 0-3.07.424-4.653 1.271l-1.677-1.112.633-10.833h12.756v2.32H24.273l-.475 7.115c1.498-.656 2.954-.985 4.368-.985 2.216 0 4.041.625 5.476 1.875 1.456 1.228 2.184 2.89 2.184 4.987 0 2.16-.739 3.918-2.216 5.274C32.133 38.322 30.234 39 27.913 39zm27.864-3.336C54.047 37.888 51.789 39 49.003 39c-2.785 0-5.043-1.101-6.773-3.304-1.71-2.224-2.564-4.956-2.564-8.196 0-3.198.865-5.909 2.595-8.133C44.013 17.122 46.281 16 49.066 16c2.786 0 5.033 1.112 6.743 3.336 1.709 2.202 2.564 4.924 2.564 8.164 0 3.198-.866 5.92-2.596 8.164zM44.16 34.012c1.267 1.8 2.902 2.7 4.907 2.7 2.004 0 3.619-.889 4.842-2.668 1.246-1.8 1.868-3.981 1.868-6.544 0-2.52-.633-4.68-1.9-6.48-1.244-1.822-2.869-2.733-4.874-2.733-2.005 0-3.63.9-4.874 2.7-1.245 1.78-1.868 3.95-1.868 6.513 0 2.52.633 4.691 1.9 6.512zm34.244 1.652C76.674 37.888 74.416 39 71.63 39c-2.785 0-5.043-1.101-6.773-3.304-1.71-2.224-2.564-4.956-2.564-8.196 0-3.198.865-5.909 2.595-8.133C66.64 17.122 68.908 16 71.693 16c2.786 0 5.033 1.112 6.743 3.336 1.709 2.202 2.563 4.924 2.563 8.164 0 3.198-.865 5.92-2.595 8.164zm-11.617-1.652c1.266 1.8 2.902 2.7 4.906 2.7 2.005 0 3.62-.889 4.843-2.668 1.246-1.8 1.868-3.981 1.868-6.544 0-2.52-.633-4.68-1.9-6.48-1.244-1.822-2.869-2.733-4.874-2.733-2.005 0-3.63.9-4.874 2.7-1.245 1.78-1.868 3.95-1.868 6.513 0 2.52.633 4.691 1.9 6.512z" fill="#fff"/></svg><svg fill="none" viewBox="0 0 24 33" id="android" xmlns="http://www.w3.org/2000/svg"><path fill-rule="evenodd" clip-rule="evenodd" d="M.784 32.823C.31 32.665 0 32.086 0 31.189V1.594C0 .764.262.204.677 0l11.836 16.493L.784 32.823zm1.63-.629l14.246-9.922-3.47-4.835L2.413 32.194zM2.71.796l10.5 14.725 3.548-4.939L2.71.796zm15.002 10.45l5.503 3.833c1.042.726 1.051 1.896 0 2.629l-5.643 3.93-3.68-5.162 3.82-5.23z" fill="#000"/></svg><svg fill="none" viewBox="0 0 28 33" id="apple" xmlns="http://www.w3.org/2000/svg"><path d="M27.885 22.927a.724.724 0 00-.508-.308c-2.74-.342-4.67-2.742-4.313-5.36.253-1.85 1.608-3.39 3.472-3.945A.682.682 0 0027 12.45a.68.68 0 00-.078-.16c-1.258-2.169-3.493-3.66-6.057-4.04-1.292.059-2.565.32-3.769.771a9.454 9.454 0 01-2.707.604 9.453 9.453 0 01-2.707-.604 12.328 12.328 0 00-3.768-.771C5.228 8.25 0 11.89 0 18.562 0 24.904 4.84 33 8.634 33a9.538 9.538 0 004.173-.919 4.082 4.082 0 011.583-.456c.556.043 1.095.2 1.583.456a9.54 9.54 0 004.173.919c3.008 0 6.403-4.934 7.824-9.506a.662.662 0 00-.085-.567zM13.67 8.25c4.37-.005 7.91-3.388 7.915-7.562 0-.38-.322-.688-.72-.688-4.368.005-7.909 3.388-7.914 7.562 0 .38.322.688.72.688z" fill="#000"/></svg><svg fill="none" viewBox="0 0 14 90" id="arrow-down" xmlns="http://www.w3.org/2000/svg"><path d="M13.203 80.811a.25.25 0 10-.406-.292l.406.292zM7 89.001l-.203.145a.25.25 0 00.406 0L7 89zm-5.797-8.482a.25.25 0 10-.406.292l.406-.292zm11.594 0l-6 8.335.406.292 6-8.335-.406-.292zm-5.594 8.335l-6-8.335-.406.292 6 8.335.406-.292z" fill="#298B7A" fill-opacity=".82"/><path d="M6.98 1v87.728" stroke="#298B7A" stroke-opacity=".82" stroke-width=".5" stroke-linecap="round"/></svg><svg fill="none" viewBox="0 0 40 40" id="battery-icon" xmlns="http://www.w3.org/2000/svg"><g filter="url(#gfilter0_i_4105:1002)"><path d="M27.603 1.996h-2.91C23.207 1.996 22 3.45 22 5.238v31.52C22 38.544 23.208 40 24.692 40h12.615C38.792 40 40 38.545 40 36.757V5.238c0-1.788-1.208-3.242-2.693-3.242h-2.91C34.293.875 33.502 0 32.544 0h-3.088c-.958 0-1.749.875-1.853 1.996zm9.704 2.494c.343 0 .622.336.622.748v6.556c0 .412-.279.748-.622.748H24.692c-.342 0-.62-.336-.62-.748V5.238c0-.412.278-.748.62-.748h12.615z" fill="#CCF0EE"/></g><g filter="url(#gfilter1_i_4105:1002)"><path d="M5.603 1.996h-2.91C1.207 1.996 0 3.45 0 5.238v31.52C0 38.544 1.208 40 2.692 40h12.615C16.792 40 18 38.545 18 36.757V5.238c0-1.788-1.208-3.242-2.693-3.242h-2.91C12.293.875 11.502 0 10.544 0H7.456c-.958 0-1.749.875-1.853 1.996zm9.704 2.494c.343 0 .622.336.622.748v31.52c0 .412-.279.747-.622.747H2.692c-.342 0-.62-.335-.62-.748V5.238c0-.412.278-.748.62-.748h12.615z" fill="#CCF0EE"/></g><defs><filter id="gfilter0_i_4105:1002" x="22" y="0" width="23" height="45" filterUnits="userSpaceOnUse" color-interpolation-filters="sRGB"><feFlood flood-opacity="0" result="BackgroundImageFix"/><feBlend in="SourceGraphic" in2="BackgroundImageFix" result="shape"/><feColorMatrix in="SourceAlpha" values="0 0 0 0 0 0 0 0 0 0 0 0 0 0 0 0 0 0 127 0" result="hardAlpha"/><feOffset dx="5" dy="5"/><feGaussianBlur stdDeviation="5"/><feComposite in2="hardAlpha" operator="arithmetic" k2="-1" k3="1"/><feColorMatrix values="0 0 0 0 0.8 0 0 0 0 0.941176 0 0 0 0 0.933333 0 0 0 1 0"/><feBlend mode="multiply" in2="shape" result="effect1_innerShadow_4105:1002"/></filter><filter id="gfilter1_i_4105:1002" x="0" y="0" width="23" height="45" filterUnits="userSpaceOnUse" color-interpolation-filters="sRGB"><feFlood flood-opacity="0" result="BackgroundImageFix"/><feBlend in="SourceGraphic" in2="BackgroundImageFix" result="shape"/><feColorMatrix in="SourceAlpha" values="0 0 0 0 0 0 0 0 0 0 0 0 0 0 0 0 0 0 127 0" result="hardAlpha"/><feOffset dx="5" dy="5"/><feGaussianBlur stdDeviation="5"/><feComposite in2="hardAlpha" operator="arithmetic" k2="-1" k3="1"/><feColorMatrix values="0 0 0 0 0.8 0 0 0 0 0.941176 0 0 0 0 0.933333 0 0 0 1 0"/><feBlend mode="multiply" in2="shape" result="effect1_innerShadow_4105:1002"/></filter></defs></svg><svg fill="none" viewBox="0 0 41 40" id="controller-icon" xmlns="http://www.w3.org/2000/svg"><g filter="url(#hfilter0_i_293:961)" fill="#CCF0EE"><path d="M26.788 25.28V14.714a.588.588 0 00-.586-.586H15.636a.588.588 0 00-.586.586v10.568c0 .322.264.586.586.586h10.566a.588.588 0 00.586-.586zm-5.87-2.154a3.132 3.132 0 01-3.127-3.129 3.132 3.132 0 013.128-3.129 3.132 3.132 0 013.128 3.129 3.132 3.132 0 01-3.128 3.129zM16.206 32.916c0 .66.537 1.188 1.189 1.188h.041c.033-.008.074-.008.107-.008h.009a1.186 1.186 0 001.031-1.18c0-.603-.454-1.106-1.031-1.18h-.009c-.033 0-.074 0-.107-.009h-.041a1.184 1.184 0 00-1.189 1.189zM5.657 21.78c.66 0 1.189-.53 1.189-1.19v-.008-.008c0-.653-.537-1.19-1.189-1.19-.66 0-1.189.53-1.189 1.19v.016c0 .653.529 1.19 1.19 1.19z"/><path d="M13.878 15.696H.927V20h2.435a2.373 2.373 0 012.295-1.784c1.106 0 2.03.76 2.295 1.784h5.926v-4.303zM20.92 18.039a1.955 1.955 0 00-1.957 1.956 1.955 1.955 0 103.913 0 1.955 1.955 0 00-1.957-1.956zM18.13 30.662a2.363 2.363 0 011.634 2.254 2.36 2.36 0 01-1.634 2.246v4.83h5.58V35.203a2.373 2.373 0 01-1.783-2.295c0-1.106.759-2.031 1.782-2.295v-3.575h-5.58v3.624zM36.479.033v7.629a.555.555 0 01-.174.413L34.54 9.85c.19.338.305.735.305 1.156a2.375 2.375 0 01-2.369 2.37 2.37 2.37 0 010-4.74c.462 0 .892.132 1.255.355l1.577-1.577V.033 0H27.48V5.853a.61.61 0 01-.214.455l-3.07 2.518v4.128h2.005a1.76 1.76 0 011.758 1.759v.982h5.927a2.373 2.373 0 012.294-1.783c1.107 0 2.031.76 2.295 1.783h2.435V1.651l-.008-.008A1.71 1.71 0 0039.194 0H36.47c0 .017.009.025.009.033z"/><path d="M36.181 17.47c.66 0 1.189-.53 1.197-1.19v-.008-.008a1.189 1.189 0 00-2.377-.017v.033c0 .67.528 1.19 1.18 1.19zM25.484 32.916c0-.652-.528-1.189-1.188-1.189h-.009-.008c-.652 0-1.189.537-1.189 1.189s.529 1.188 1.19 1.188h.016c.66 0 1.188-.536 1.188-1.188z"/><path d="M40.878 16.866h-2.402a2.366 2.366 0 01-2.295 1.775c-1.106 0-2.03-.76-2.295-1.775H27.96v8.413a1.76 1.76 0 01-1.758 1.759H24.88v3.575a2.373 2.373 0 011.783 2.295c0 1.106-.76 2.031-1.783 2.295V39.992h6.058c-.008-.033-.008-.075-.008-.116v-7.628c0-.157.058-.306.174-.413l1.766-1.767a2.37 2.37 0 11.817.85l-1.576 1.577v7.39c0 .04 0 .074-.009.115h7.107c.95 0 1.717-.768 1.717-1.717V16.875c-.024-.009-.041-.009-.05-.009zM9.347 39.686V33.47L7.77 31.892a2.37 2.37 0 111.123-2.014c0 .421-.108.817-.306 1.156l1.767 1.767a.588.588 0 01.173.413v6.456a.624.624 0 01-.083.305h6.513V35.22a2.367 2.367 0 01-1.923-2.328c0-1.156.833-2.122 1.923-2.329v-3.55h-1.32a1.76 1.76 0 01-1.759-1.758v-4.112H7.952a2.382 2.382 0 01-2.295 1.783c-1.106 0-2.03-.76-2.295-1.783H.927V38.25c0 .95.768 1.717 1.717 1.717H9.43a.491.491 0 01-.082-.28zM19.302 12.953V.033 0h-3.773v5.993l1.478 1.479a.588.588 0 01.173.412v5.061h2.122v.008z"/><path d="M33.73 28.904c0 .66.537 1.19 1.197 1.19a1.19 1.19 0 10-.008-2.38 1.184 1.184 0 00-1.189 1.19zM10.758 9.677c.66 0 1.197-.537 1.197-1.19 0-.66-.537-1.188-1.189-1.196-.297 0-.578.115-.784.297-.008.008-.016.017-.016.025a.218.218 0 01-.05.041 1.189 1.189 0 00-.338.826c-.017.66.52 1.197 1.18 1.197zM6.515 28.697a1.189 1.189 0 000 2.378c.314 0 .595-.115.801-.313.017-.025.041-.05.058-.075a.222.222 0 01.066-.058c.165-.206.264-.462.264-.751a1.177 1.177 0 00-1.189-1.18z"/><path d="M.96 4.483h6.455c.157 0 .306.058.413.173l1.758 1.759a2.37 2.37 0 11-.85.817l-1.56-1.568H.927v8.859H13.887a1.761 1.761 0 011.75-1.57h.38v-4.82l-1.478-1.479a.588.588 0 01-.174-.412V.033 0H2.645C1.694 0 .926.768.926 1.717v2.774c.017-.008.025-.008.033-.008zM26.301.033V0h-5.828v12.953h2.543v-4.4a.61.61 0 01.214-.454l3.071-2.518V.033zM31.287 11.005c0 .66.536 1.197 1.188 1.197.66 0 1.197-.536 1.197-1.188 0-.66-.536-1.189-1.188-1.197-.669 0-1.197.528-1.197 1.188z"/></g><defs><filter id="hfilter0_i_293:961" x=".927" y="0" width="45" height="45" filterUnits="userSpaceOnUse" color-interpolation-filters="sRGB"><feFlood flood-opacity="0" result="BackgroundImageFix"/><feBlend in="SourceGraphic" in2="BackgroundImageFix" result="shape"/><feColorMatrix in="SourceAlpha" values="0 0 0 0 0 0 0 0 0 0 0 0 0 0 0 0 0 0 127 0" result="hardAlpha"/><feOffset dx="5" dy="5"/><feGaussianBlur stdDeviation="5"/><feComposite in2="hardAlpha" operator="arithmetic" k2="-1" k3="1"/><feColorMatrix values="0 0 0 0 0.8 0 0 0 0 0.941176 0 0 0 0 0.933333 0 0 0 1 0"/><feBlend mode="multiply" in2="shape" result="effect1_innerShadow_293:961"/></filter></defs></svg><svg fill="none" viewBox="0 0 40 40" id="cotton-icon" xmlns="http://www.w3.org/2000/svg"><g filter="url(#ifilter0_i_293:962)"><path d="M40 19.682c0-2.056-.832-4.015-2.34-5.533-.053-.049-.105-.147-.157-.195a.717.717 0 00-.208-.147l-.156-.147c-.104-.098-.208-.196-.312-.245l-.052-.049-.052-.049a7.933 7.933 0 00-2.497-1.273h-.052c-.052 0-.104 0-.104-.049-.104-.049-.208-.049-.364-.098-.104 0-.156-.049-.26-.049-.104-.049-.208-.049-.312-.049-.104 0-.156-.049-.26-.049h-.052c-.156 0-.312-.049-.52-.049h-.104c-.156 0-.26 0-.416-.049h-.157v-.538c0-2.938-1.196-5.728-3.433-7.785C25.956 1.273 23.095 0 19.974 0 13.524 0 8.27 4.945 8.27 11.016v.539c-.936.048-1.872.244-2.756.538-.052 0-.104.049-.156.049h-.052c-.885.343-2.497 1.126-3.641 2.693A7.727 7.727 0 000 19.633c0 3.035 1.82 5.826 4.63 7.197v.049c-.209.245-.313.587-.157.881.156.294.468.49.78.49H8.01c.208 0 .417.049.573.195l.988.784c1.82 1.42 4.161 2.203 6.554 2.203h.676c.052.49.364.93.832 1.175v6.56c0 .441.416.833.885.833.468 0 .884-.392.884-.832v-6.365h1.144v6.365c0 .44.416.832.884.832.469 0 .885-.392.885-.832v-6.463c.468-.245.78-.685.832-1.175h.676c2.393 0 4.682-.783 6.554-2.203l.988-.784c.157-.146.365-.195.573-.195h2.756c.364 0 .677-.196.78-.49a.716.716 0 00-.155-.881c2.86-1.42 4.681-4.21 4.681-7.295zM21.43 31.285h-2.86v-1.224c0-.44-.417-.832-.885-.832-.416 0-.78.294-.832.636h-.676c-1.977 0-3.901-.636-5.41-1.811l-.988-.784c-.468-.391-1.092-.587-1.717-.587h-.676a3.248 3.248 0 011.769-.539h1.976c.52 0 .989-.195 1.353-.538s.52-.832.52-1.322a8.242 8.242 0 00-.364-1.91c.728.686 1.352 1.47 1.82 2.057.156.196.312.392.468.636l.052.05c.625.783 1.249 1.42 2.133 1.909l.052.049c.052 0 .104.049.104.049h.104c.052.049.104.049.208.098.052 0 .052 0 .104.048.052.05.156.05.26.098l.104.05c.052 0 .104.048.157.048a5.826 5.826 0 001.768.294c1.925 0 3.745-.881 4.837-2.35.833-1.077 1.665-2.154 2.601-3.035-.208.636-.312 1.273-.364 1.958-.052.49.156.98.52 1.322.364.343.832.538 1.353.538h1.976c.625 0 1.249.196 1.769.539h-.728a2.79 2.79 0 00-1.717.588l-.988.783c-1.509 1.175-3.433 1.811-5.41 1.811h-.728a.878.878 0 00-.832-.636c-.469 0-.885.392-.885.832l.052 1.175z" fill="#CCF0EE"/></g><defs><filter id="ifilter0_i_293:962" x="0" y="0" width="45" height="45" filterUnits="userSpaceOnUse" color-interpolation-filters="sRGB"><feFlood flood-opacity="0" result="BackgroundImageFix"/><feBlend in="SourceGraphic" in2="BackgroundImageFix" result="shape"/><feColorMatrix in="SourceAlpha" values="0 0 0 0 0 0 0 0 0 0 0 0 0 0 0 0 0 0 127 0" result="hardAlpha"/><feOffset dx="5" dy="5"/><feGaussianBlur stdDeviation="5"/><feComposite in2="hardAlpha" operator="arithmetic" k2="-1" k3="1"/><feColorMatrix values="0 0 0 0 0.8 0 0 0 0 0.941176 0 0 0 0 0.933333 0 0 0 1 0"/><feBlend mode="multiply" in2="shape" result="effect1_innerShadow_293:962"/></filter></defs></svg><svg fill="none" viewBox="0 0 488 487" id="diagram" xmlns="http://www.w3.org/2000/svg"><g filter="url(#jfilter0_i_506:3524)"><path d="M396.691 297.636a167.918 167.918 0 006.905-98.786c-.628-2.689-3.374-4.278-6.043-3.57l-29.478 7.818c-2.665.706-4.245 3.435-3.649 6.127a127.139 127.139 0 01-55.177 134.277 127.182 127.182 0 01-145.29-5.086c-2.208-1.656-5.35-1.341-7.092.8l-19.71 24.21c-1.743 2.142-1.424 5.298.768 6.977a167.984 167.984 0 00193.234 7.731 167.947 167.947 0 0065.532-80.498z" fill="#DED2B2"/></g><g filter="url(#jfilter1_i_506:3524)" fill="#C8BB93"><path d="M182.747 305.469c-1.516 2.315-.867 5.427 1.492 6.873a183.196 183.196 0 0043.176 19.29c2.643.791 5.387-.79 6.11-3.452l8.9-32.783c.724-2.663-.851-5.4-3.487-6.221a138.655 138.655 0 01-30.539-13.743c-2.363-1.429-5.458-.792-6.972 1.519l-18.68 28.517zM278.02 160.021l1.687-2.001a.152.152 0 00.032-.06c.047-.174-.186-.279-.285-.128l-1.434 2.189z"/></g><g filter="url(#jfilter2_i_506:3524)"><path d="M247.879 1.01a242.267 242.267 0 00-122.8 31.992c-2.394 1.37-3.161 4.442-1.745 6.81l17.522 29.306c1.418 2.373 4.49 3.138 6.896 1.776a198.252 198.252 0 0182.719-25.167 198.221 198.221 0 01112.485 25.099 198.693 198.693 0 0179.607 83.468 199.144 199.144 0 0119.897 113.705 199.006 199.006 0 01-46.519 105.614 198.46 198.46 0 01-97.256 61.927 198.177 198.177 0 01-115.211-2.634 198.404 198.404 0 01-64.688-35.786c-2.127-1.765-5.286-1.554-7.101.532l-22.408 25.746c-1.81 2.08-1.598 5.239.516 7.01a242.396 242.396 0 00115.239 53.199 242.195 242.195 0 00130.933-14.173 242.643 242.643 0 00104.246-80.613 243.248 243.248 0 0046.835-123.296 243.364 243.364 0 00-24.378-129.64 242.85 242.85 0 00-88.408-97.777A242.283 242.283 0 00247.879 1.01z" fill="#EDE7D7"/></g><g filter="url(#jfilter3_i_506:3524)"><path d="M243.589 243.995l-.003.003M85 427.883a242.95 242.95 0 01-58.668-75.772 243.355 243.355 0 01-24.378-129.64A243.247 243.247 0 0148.789 99.176 242.73 242.73 0 01120 34.897m-5.26 360.354a198.784 198.784 0 01-48.302-61.549A199.131 199.131 0 0146.54 219.998a198.997 198.997 0 0146.52-105.615 198.566 198.566 0 0149.44-41.506" stroke="#F9F9F9" stroke-dasharray="10 10"/></g><defs><filter id="jfilter0_i_506:3524" x="136.037" y="195.111" width="276.963" height="214.887" filterUnits="userSpaceOnUse" color-interpolation-filters="sRGB"><feFlood flood-opacity="0" result="BackgroundImageFix"/><feBlend in="SourceGraphic" in2="BackgroundImageFix" result="shape"/><feColorMatrix in="SourceAlpha" values="0 0 0 0 0 0 0 0 0 0 0 0 0 0 0 0 0 0 127 0" result="hardAlpha"/><feOffset dx="5" dy="5"/><feGaussianBlur stdDeviation="5"/><feComposite in2="hardAlpha" operator="arithmetic" k2="-1" k3="1"/><feColorMatrix values="0 0 0 0 0.783319 0 0 0 0 0.732705 0 0 0 0 0.576644 0 0 0 0.3 0"/><feBlend mode="multiply" in2="shape" result="effect1_innerShadow_506:3524"/></filter><filter id="jfilter1_i_506:3524" x="181.93" y="157.76" width="102.815" height="179.076" filterUnits="userSpaceOnUse" color-interpolation-filters="sRGB"><feFlood flood-opacity="0" result="BackgroundImageFix"/><feBlend in="SourceGraphic" in2="BackgroundImageFix" result="shape"/><feColorMatrix in="SourceAlpha" values="0 0 0 0 0 0 0 0 0 0 0 0 0 0 0 0 0 0 127 0" result="hardAlpha"/><feOffset dx="5" dy="5"/><feGaussianBlur stdDeviation="5"/><feComposite in2="hardAlpha" operator="arithmetic" k2="-1" k3="1"/><feColorMatrix values="0 0 0 0 0.783319 0 0 0 0 0.732705 0 0 0 0 0.576644 0 0 0 0.4 0"/><feBlend mode="multiply" in2="shape" result="effect1_innerShadow_506:3524"/></filter><filter id="jfilter2_i_506:3524" x="88.051" y=".998" width="404.949" height="491" filterUnits="userSpaceOnUse" color-interpolation-filters="sRGB"><feFlood flood-opacity="0" result="BackgroundImageFix"/><feBlend in="SourceGraphic" in2="BackgroundImageFix" result="shape"/><feColorMatrix in="SourceAlpha" values="0 0 0 0 0 0 0 0 0 0 0 0 0 0 0 0 0 0 127 0" result="hardAlpha"/><feOffset dx="5" dy="5"/><feGaussianBlur stdDeviation="5"/><feComposite in2="hardAlpha" operator="arithmetic" k2="-1" k3="1"/><feColorMatrix values="0 0 0 0 0.783319 0 0 0 0 0.732705 0 0 0 0 0.576644 0 0 0 0.2 0"/><feBlend mode="multiply" in2="shape" result="effect1_innerShadow_506:3524"/></filter><filter id="jfilter3_i_506:3524" x="0" y="34.037" width="249.2" height="399.602" filterUnits="userSpaceOnUse" color-interpolation-filters="sRGB"><feFlood flood-opacity="0" result="BackgroundImageFix"/><feBlend in="SourceGraphic" in2="BackgroundImageFix" result="shape"/><feColorMatrix in="SourceAlpha" values="0 0 0 0 0 0 0 0 0 0 0 0 0 0 0 0 0 0 127 0" result="hardAlpha"/><feOffset dx="5" dy="5"/><feGaussianBlur stdDeviation="5"/><feComposite in2="hardAlpha" operator="arithmetic" k2="-1" k3="1"/><feColorMatrix values="0 0 0 0 0.783319 0 0 0 0 0.732705 0 0 0 0 0.576644 0 0 0 0.2 0"/><feBlend mode="multiply" in2="shape" result="effect1_innerShadow_506:3524"/></filter></defs></svg><svg fill="none" viewBox="0 0 26 50" id="feature-battery" xmlns="http://www.w3.org/2000/svg"><path d="M8.094 2.494H3.889C1.745 2.494 0 4.313 0 6.548v39.399C0 48.18 1.745 50 3.89 50h18.22c2.145 0 3.89-1.819 3.89-4.053V6.547c0-2.235-1.745-4.054-3.89-4.054h-4.204C17.756 1.094 16.614 0 15.231 0h-4.462C9.386 0 8.243 1.093 8.094 2.494zM22.11 5.613c.495 0 .897.42.897.935v8.917c0 .516-.402.936-.897.936H3.889c-.495 0-.897-.42-.897-.936V6.548c0-.516.402-.935.897-.935h18.222z" fill="#7DD4AF"/></svg><svg fill="none" viewBox="0 0 36 50" id="feature-drop" xmlns="http://www.w3.org/2000/svg"><path d="M20.108 1.723c-1.378-2.337-2.838-2.257-4.216 0C9.568 11.072 0 25.096 0 32.108c0 4.916 2.027 9.43 5.27 12.653A18.079 18.079 0 0018 50c4.946 0 9.486-2.015 12.73-5.239A17.862 17.862 0 0036 32.108c0-7.093-9.568-21.036-15.892-30.385zm10.865 38.364a15.353 15.353 0 01-5.432 5.238c-1.055.565-2.352.242-2.92-.806-.648-1.128-.243-2.417.811-2.982 1.622-.886 2.92-2.176 3.892-3.707a10.462 10.462 0 001.622-5.158c.081-1.21 1.054-2.096 2.27-2.015 1.216.08 2.108 1.048 2.027 2.257-.162 2.579-.973 4.997-2.27 7.173z" fill="#7DD4AF"/></svg><svg fill="none" viewBox="0 0 14 55" id="feature-nicotine" xmlns="http://www.w3.org/2000/svg"><g filter="url(#mfilter0_i_413:2598)"><path d="M11.002 21.284c.805-1.441 1.445-4.104.665-8.96-.812-5.049-1.167-8.362-1.167-8.886C10.5 1.538 8.933 0 7 0S3.5 1.538 3.5 3.438c0 .524-.355 3.838-1.167 8.886-.78 4.856-.14 7.519.665 8.96L0 25.209V52.71C0 53.976 1.044 55 2.333 55h9.334C12.956 55 14 53.976 14 52.71V25.21l-2.998-3.925zM4.638 12.68c.738-4.597 1.195-8.378 1.195-9.243A1.16 1.16 0 017 2.29a1.16 1.16 0 011.167 1.147c0 .865.457 4.646 1.195 9.243.598 3.724.261 5.795-.127 6.877-.203.567-.432.893-.59 1.068H5.355c-.159-.175-.388-.5-.591-1.068-.388-1.082-.725-3.153-.127-6.877zM2.333 27.163v-1.19l2.334-3.056H9.333l2.334 3.055v4.602a9.624 9.624 0 01-.877.042c-2.971 0-5.723-1.381-8.457-3.453z" fill="#7DD4AF"/></g><defs><filter id="mfilter0_i_413:2598" x="0" y="0" width="19" height="60" filterUnits="userSpaceOnUse" color-interpolation-filters="sRGB"><feFlood flood-opacity="0" result="BackgroundImageFix"/><feBlend in="SourceGraphic" in2="BackgroundImageFix" result="shape"/><feColorMatrix in="SourceAlpha" values="0 0 0 0 0 0 0 0 0 0 0 0 0 0 0 0 0 0 127 0" result="hardAlpha"/><feOffset dx="5" dy="5"/><feGaussianBlur stdDeviation="5"/><feComposite in2="hardAlpha" operator="arithmetic" k2="-1" k3="1"/><feColorMatrix values="0 0 0 0 0.8 0 0 0 0 0.941176 0 0 0 0 0.933333 0 0 0 1 0"/><feBlend mode="multiply" in2="shape" result="effect1_innerShadow_413:2598"/></filter></defs></svg><svg fill="none" viewBox="0 0 32 53" id="feature-no-smoke" xmlns="http://www.w3.org/2000/svg"><g filter="url(#nfilter0_i_445:4044)" fill="#7DD4AF"><path d="M8.324 19.275c7.065-5.464 4.797-13.516 1.983-18.27-.276-.468.301-1.073.77-.797 26.117 15.388 6.507 25.256.801 30.254-5.096 4.464-6.566 7.262-6.926 12.399-.072 1.017-1.415 1.363-1.876.454-5.19-10.228-4.053-16.845 5.248-24.04z"/><path d="M17.044 31.593c7.89-5.102 10.08-9.261 10.255-12.392.03-.521.791-.832 1.1-.41 9.554 13.054-2.342 18.608-7.568 21.968-6.046 3.89-6.768 6.229-8.183 10.812l-.014.047c-.266.862-1.413.932-1.73.087-1.935-5.178-3.413-13.935 6.14-20.112z"/></g><defs><filter id="nfilter0_i_445:4044" x="0" y=".139" width="37" height="57.164" filterUnits="userSpaceOnUse" color-interpolation-filters="sRGB"><feFlood flood-opacity="0" result="BackgroundImageFix"/><feBlend in="SourceGraphic" in2="BackgroundImageFix" result="shape"/><feColorMatrix in="SourceAlpha" values="0 0 0 0 0 0 0 0 0 0 0 0 0 0 0 0 0 0 127 0" result="hardAlpha"/><feOffset dx="5" dy="5"/><feGaussianBlur stdDeviation="5"/><feComposite in2="hardAlpha" operator="arithmetic" k2="-1" k3="1"/><feColorMatrix values="0 0 0 0 0.8 0 0 0 0 0.941176 0 0 0 0 0.933333 0 0 0 1 0"/><feBlend mode="multiply" in2="shape" result="effect1_innerShadow_445:4044"/></filter></defs></svg><svg fill="none" viewBox="0 0 39 50" id="feature-ruble" xmlns="http://www.w3.org/2000/svg"><path d="M12.587 33.357v4.214h6.916a2.036 2.036 0 110 4.072h-6.916v4.728a3.629 3.629 0 11-7.258 0v-4.728H2.036a2.036 2.036 0 010-4.072h3.293V0h12.76c6.564 0 11.69 1.452 15.378 4.357C37.156 7.214 39 11.31 39 16.643c0 5.38-1.844 9.524-5.533 12.428-3.689 2.858-8.814 4.286-15.377 4.286h-5.503zm19.155-16.643c0-3.38-1.173-5.976-3.52-7.785-2.348-1.81-5.725-2.715-10.132-2.715h-5.503V27.43h5.503c4.36 0 7.712-.929 10.06-2.786 2.395-1.905 3.593-4.548 3.593-7.929z" fill="#7DD4AF"/></svg><svg fill="none" viewBox="0 0 24 24" id="instagram" xmlns="http://www.w3.org/2000/svg"><path fill-rule="evenodd" clip-rule="evenodd" d="M12.001 0C8.742 0 8.333.014 7.053.072 5.776.131 4.903.333 4.141.63a5.876 5.876 0 00-2.126 1.384A5.89 5.89 0 00.63 4.139c-.298.764-.5 1.636-.558 2.913C.015 8.332 0 8.74 0 12c0 3.259.015 3.667.073 4.947.058 1.277.26 2.15.557 2.912a5.88 5.88 0 001.384 2.126 5.875 5.875 0 002.125 1.385c.764.297 1.636.499 2.913.557C8.332 23.986 8.741 24 12 24c3.259 0 3.667-.014 4.947-.073 1.277-.058 2.15-.26 2.914-.557a5.87 5.87 0 002.124-1.385 5.89 5.89 0 001.385-2.125c.295-.764.497-1.636.557-2.913.058-1.28.073-1.688.073-4.947 0-3.259-.015-3.668-.073-4.948-.06-1.277-.262-2.15-.557-2.912a5.89 5.89 0 00-1.385-2.126A5.866 5.866 0 0019.86.63c-.765-.297-1.637-.499-2.915-.558C15.665.014 15.257 0 11.997 0h.004zm-1.076 2.163H12c3.204 0 3.584.011 4.85.069 1.17.053 1.804.249 2.227.413.56.217.96.477 1.38.897.42.42.68.82.897 1.38.165.423.36 1.058.413 2.228.058 1.265.07 1.645.07 4.847 0 3.203-.012 3.583-.07 4.848-.053 1.17-.248 1.805-.413 2.227-.217.56-.478.959-.898 1.379-.42.42-.819.68-1.379.897-.422.165-1.058.36-2.228.414-1.265.057-1.645.07-4.849.07s-3.584-.013-4.849-.07c-1.17-.054-1.805-.25-2.228-.414a3.717 3.717 0 01-1.38-.897c-.42-.42-.68-.82-.898-1.38-.164-.422-.36-1.057-.413-2.227-.058-1.265-.07-1.645-.07-4.85 0-3.204.012-3.582.07-4.847.053-1.17.249-1.805.413-2.228.217-.56.478-.96.898-1.38.42-.42.82-.68 1.38-.898.423-.165 1.058-.36 2.228-.414 1.107-.05 1.536-.065 3.773-.067v.002zm7.482 1.992a1.44 1.44 0 100 2.88 1.44 1.44 0 000-2.88zM5.839 12a6.163 6.163 0 1112.325 0A6.163 6.163 0 015.84 12zM16 12a4 4 0 10-8 0 4 4 0 008 0z" fill="#000"/></svg><svg viewBox="0 0 88 20" id="logo" xmlns="http://www.w3.org/2000/svg"><path d="M18.949 10.089v-8.41C18.94.969 19.409.5 20.102.5c.694 0 1.154.47 1.154 1.179l-.01 8.106c0 4.016 1.64 5.71 5.623 5.71l2.901-.009c.694.01 1.154.47 1.154 1.18 0 .709-.46 1.188-1.154 1.178h-3.234c-4.857.01-7.596-2.79-7.587-7.755zm39.07-9.45h1.675c4.857 0 7.569 2.78 7.578 7.755v8.428c-.01.71-.46 1.17-1.154 1.17-.693 0-1.162-.46-1.153-1.17l-.018-8.115c.01-4.025-1.622-5.692-5.595-5.692h-.991c-3.974 0-5.623 1.658-5.623 5.692l.009 8.106c-.009.718-.46 1.179-1.153 1.179-.694 0-1.163-.46-1.154-1.18V8.395C50.431 3.42 53.161.638 58.018.638zm-50.441 0h1.676c4.613 0 7.569 2.514 7.569 7.248 0 4.698-2.956 7.259-7.57 7.25H5.939c-.703.009-1.153-.47-1.153-1.18 0-.709.45-1.17 1.153-1.179l2.973.01c3.73 0 5.596-1.447 5.596-4.9 0-3.455-1.865-4.873-5.596-4.873h-.99c-3.974 0-5.623 1.658-5.623 5.692l.009 8.106c-.01.718-.46 1.179-1.154 1.179-.693 0-1.162-.46-1.153-1.18V8.395C-.009 3.42 2.721.638 7.578.638zm69.578 0h1.676c4.857 0 7.578 2.78 7.578 7.755v4.034c-.01.719-.46 1.198-1.153 1.198-.694 0-1.163-.48-1.154-1.198l-.018-3.73c.01-4.025-1.622-5.693-5.595-5.693h-.991c-3.974 0-5.623 1.65-5.623 5.693v1.078c0 4.034 1.64 5.71 5.623 5.71h6.388c1.649 0 2.226.415 3.109 1.318l.531.543c.577.59.63 1.308.135 1.805-.495.507-1.171.48-1.838-.212l-.585-.598c-.289-.286-.55-.507-1.27-.516h-6.822c-4.847.01-7.578-2.782-7.578-7.756V8.385C69.58 3.42 72.3.638 77.157.638zM33.6 8.706v1.078c0 4.034 1.64 5.71 5.622 5.71h.992c3.973 0 5.595-1.676 5.595-5.71V8.707c0-4.034-1.622-5.692-5.595-5.692h-.992c-3.973 0-5.622 1.648-5.622 5.692zM38.88.638h1.676c4.857 0 7.578 2.782 7.578 7.756v1.685c0 4.974-2.721 7.756-7.578 7.756H38.88c-4.857 0-7.578-2.782-7.578-7.756V8.394c0-4.974 2.73-7.756 7.578-7.756z"/></svg><svg fill="none" viewBox="0 0 13 19" id="map" xmlns="http://www.w3.org/2000/svg"><path fill-rule="evenodd" clip-rule="evenodd" d="M7.304 17.92c3.793-5.082 5.69-8.746 5.69-10.994a6.991 6.991 0 00-1.818-4.998A6.144 6.144 0 006.501.005 6.144 6.144 0 001.78 1.928a6.992 6.992 0 00-1.77 4.998c0 2.256 1.896 5.92 5.69 10.994l.153.213.65.867.648-.867.154-.213zM6.5 1.3a4.828 4.828 0 00-3.719 1.495 5.705 5.705 0 00-1.475 4.131 9.534 9.534 0 001.322 3.942A47.93 47.93 0 006.5 16.804a47.93 47.93 0 003.872-5.936 9.533 9.533 0 001.322-3.942 5.727 5.727 0 00-1.475-4.131A4.85 4.85 0 006.5 1.275V1.3zm-.295 2.267h.59a2.349 2.349 0 011.906.615 2.375 2.375 0 01.75 1.866 2.386 2.386 0 01-.75 1.865 2.358 2.358 0 01-1.906.616h-1.18a.388.388 0 01-.374-.247.394.394 0 01-.028-.157.382.382 0 01.244-.38.376.376 0 01.158-.023h1.05c1.31 0 1.96-.487 1.96-1.674 0-1.187-.637-1.674-1.948-1.674h-.354c-1.393 0-1.971.57-1.971 1.947v2.778a.394.394 0 01-.246.376.388.388 0 01-.156.028.376.376 0 01-.378-.246.382.382 0 01-.023-.158V6.226a2.387 2.387 0 01.675-1.989 2.359 2.359 0 011.981-.67z" fill="#000"/></svg><svg fill="none" viewBox="0 0 48 25" id="no-button-icon" xmlns="http://www.w3.org/2000/svg"><g filter="url(#sfilter0_i_250:822)"><path d="M35.297 0H12.703C5.7 0 0 5.607 0 12.5 0 19.392 5.699 25 12.703 25h22.594C42.3 25 48 19.392 48 12.5 48 5.607 42.301 0 35.297 0zm0 22.233c-5.454 0-9.89-4.366-9.89-9.733 0-5.366 4.436-9.732 9.89-9.732 5.454 0 9.89 4.366 9.89 9.732 0 5.367-4.436 9.733-9.89 9.733z" fill="#CCF0EE"/></g><defs><filter id="sfilter0_i_250:822" x="0" y="0" width="53" height="30" filterUnits="userSpaceOnUse" color-interpolation-filters="sRGB"><feFlood flood-opacity="0" result="BackgroundImageFix"/><feBlend in="SourceGraphic" in2="BackgroundImageFix" result="shape"/><feColorMatrix in="SourceAlpha" values="0 0 0 0 0 0 0 0 0 0 0 0 0 0 0 0 0 0 127 0" result="hardAlpha"/><feOffset dx="5" dy="5"/><feGaussianBlur stdDeviation="5"/><feComposite in2="hardAlpha" operator="arithmetic" k2="-1" k3="1"/><feColorMatrix values="0 0 0 0 0.8 0 0 0 0 0.941176 0 0 0 0 0.933333 0 0 0 1 0"/><feBlend mode="multiply" in2="shape" result="effect1_innerShadow_250:822"/></filter></defs></svg><svg fill="none" viewBox="0 0 47 46" id="no-loose-icon" xmlns="http://www.w3.org/2000/svg"><g filter="url(#tfilter0_i_250:827)"><path d="M41.709 5.175c-7.012-6.888-18.406-6.9-25.441-.035-6.787 6.633-7.071 17.302-.652 24.271l-1.374 1.345c-1.113-1.09-2.913-1.09-4.015 0L.835 39.941a2.731 2.731 0 000 3.931l1.338 1.31c1.114 1.09 2.914 1.09 4.015 0l9.38-9.184a2.731 2.731 0 000-3.931l1.375-1.345c7.367 6.517 18.749 5.96 25.405-1.264 6.443-6.97 6.159-17.65-.64-24.283zM14.242 34.688l-9.38 9.184a.965.965 0 01-1.338 0l-1.339-1.31a.917.917 0 010-1.31l9.38-9.185a.989.989 0 011.339 0l1.338 1.31c.368.36.368.951 0 1.31zm24.091-7.897a.904.904 0 01-.035-1.264 11.898 11.898 0 000-15.783.915.915 0 01.035-1.264.95.95 0 011.386.058 13.719 13.719 0 010 18.206.96.96 0 01-1.386.047z" fill="#CCF0EE"/></g><defs><filter id="tfilter0_i_250:827" x="0" y="0" width="52" height="51" filterUnits="userSpaceOnUse" color-interpolation-filters="sRGB"><feFlood flood-opacity="0" result="BackgroundImageFix"/><feBlend in="SourceGraphic" in2="BackgroundImageFix" result="shape"/><feColorMatrix in="SourceAlpha" values="0 0 0 0 0 0 0 0 0 0 0 0 0 0 0 0 0 0 127 0" result="hardAlpha"/><feOffset dx="5" dy="5"/><feGaussianBlur stdDeviation="5"/><feComposite in2="hardAlpha" operator="arithmetic" k2="-1" k3="1"/><feColorMatrix values="0 0 0 0 0.8 0 0 0 0 0.941176 0 0 0 0 0.933333 0 0 0 1 0"/><feBlend mode="multiply" in2="shape" result="effect1_innerShadow_250:827"/></filter></defs></svg><svg fill="none" viewBox="0 0 47 48" id="no-service-icon" xmlns="http://www.w3.org/2000/svg"><g filter="url(#ufilter0_i_281:1054)"><path d="M19.371 34.08l2.769-3.028c1.642.52 3.39.61 5.077.258l.684 1.801a.792.792 0 00.735.511h3.791a.782.782 0 00.73-.51l1.344-3.517 2.09-.895 3.39 1.52a.76.76 0 00.867-.166l2.671-2.73a.808.808 0 00.167-.89l-1.505-3.442.873-2.14 3.446-1.37a.799.799 0 00.5-.746v-3.873a.803.803 0 00-.5-.751l-3.446-1.348-.873-2.14 1.487-3.442a.808.808 0 00-.166-.889l-2.671-2.73a.775.775 0 00-.873-.173l-3.372 1.52-2.097-.889-1.338-3.51A.792.792 0 0032.416 0h-3.803a.782.782 0 00-.735.51l-1.344 3.523-2.074.877-3.383-1.52a.77.77 0 00-.873.172l-2.671 2.731a.831.831 0 00-.167.89l1.488 3.441-.873 2.14-3.446 1.37a.798.798 0 00-.5.747v3.872a.802.802 0 00.5.751l.545.218v.08a10.663 10.663 0 001.034 6.035L1.082 40.18a3.52 3.52 0 00-.178 4.893l.086.086 1.78 1.824a3.333 3.333 0 004.797 0 .778.778 0 01.098-.097l10.178-11.14 1.528-1.664zm-2.67.575L6.52 45.8a1.77 1.77 0 01-1.332.573 1.8 1.8 0 01-1.298-.573l-1.78-1.825a1.875 1.875 0 01.045-2.678l15.475-14.75a.815.815 0 00.132-.992 8.917 8.917 0 011.459-10.819 8.55 8.55 0 017.743-2.248l-5.101 5.208a.808.808 0 00-.184.82l1.666 5.089a.796.796 0 00.494.51l4.986 1.721a.77.77 0 00.798-.195l4.182-4.268a8.683 8.683 0 01-2.656 6.105 8.705 8.705 0 01-6.201 2.437 8.39 8.39 0 01-2.752-.573.777.777 0 00-.838.2l-3.131 3.402-1.528 1.71zM29.635 12.07l4.147 1.41 1.384 4.24-3.75 3.832-4.148-1.451-1.384-4.24 3.75-3.791zm.867 7.411a2.667 2.667 0 002.605-2.15 2.659 2.659 0 00-1.6-2.972 2.669 2.669 0 00-3.232.983 2.66 2.66 0 00.332 3.36c.505.494 1.187.769 1.895.762v.017zm-.638-3.304a.892.892 0 011.264 1.256.891.891 0 01-1.264-1.256z" fill="#CCF0EE"/></g><defs><filter id="ufilter0_i_281:1054" x="0" y="0" width="52" height="53" filterUnits="userSpaceOnUse" color-interpolation-filters="sRGB"><feFlood flood-opacity="0" result="BackgroundImageFix"/><feBlend in="SourceGraphic" in2="BackgroundImageFix" result="shape"/><feColorMatrix in="SourceAlpha" values="0 0 0 0 0 0 0 0 0 0 0 0 0 0 0 0 0 0 127 0" result="hardAlpha"/><feOffset dx="5" dy="5"/><feGaussianBlur stdDeviation="5"/><feComposite in2="hardAlpha" operator="arithmetic" k2="-1" k3="1"/><feColorMatrix values="0 0 0 0 0.8 0 0 0 0 0.941176 0 0 0 0 0.933333 0 0 0 1 0"/><feBlend mode="multiply" in2="shape" result="effect1_innerShadow_281:1054"/></filter></defs></svg><svg fill="none" viewBox="0 0 35 60" id="no-smoke-icon" xmlns="http://www.w3.org/2000/svg"><g filter="url(#vfilter0_i_250:818)" fill="#CCF0EE"><path d="M9.105 22.119C18.068 15.203 13.297 4.492 9.79 0c32.012 17.542 9.603 28.729 3.2 34.322-6.773 5.918-7.688 9.153-7.688 17.542C-2.472 38.644-2.1 30.763 9.105 22.12z"/><path d="M18.642 35.556C29.286 28.69 30.446 23.39 29.684 19.83c12.886 15.508-.954 21.911-6.9 25.725-7.688 4.931-7.506 7.58-9.792 14.444-2.287-4.83-6.571-16.563 5.65-24.444z"/></g><defs><filter id="vfilter0_i_250:818" x="0" y="0" width="40" height="65" filterUnits="userSpaceOnUse" color-interpolation-filters="sRGB"><feFlood flood-opacity="0" result="BackgroundImageFix"/><feBlend in="SourceGraphic" in2="BackgroundImageFix" result="shape"/><feColorMatrix in="SourceAlpha" values="0 0 0 0 0 0 0 0 0 0 0 0 0 0 0 0 0 0 127 0" result="hardAlpha"/><feOffset dx="5" dy="5"/><feGaussianBlur stdDeviation="5"/><feComposite in2="hardAlpha" operator="arithmetic" k2="-1" k3="1"/><feColorMatrix values="0 0 0 0 0.8 0 0 0 0 0.941176 0 0 0 0 0.933333 0 0 0 1 0"/><feBlend mode="multiply" in2="shape" result="effect1_innerShadow_250:818"/></filter></defs></svg><svg fill="none" viewBox="0 0 41 42" id="plastic-icon" xmlns="http://www.w3.org/2000/svg"><g filter="url(#wfilter0_i_293:958)"><path d="M40.927 21.001a.843.843 0 00-.422-.73l-7.534-4.11 7.534-4.117a.824.824 0 00.422-.73.833.833 0 00-.422-.73L34.018 7.04c-.383-.205-.852-.05-1.055.353A.848.848 0 0033.3 8.5l5.159 2.814-17.53 9.572-17.523-9.572 17.522-9.565 6.128 3.347c.383.205.852.05 1.055-.353a.848.848 0 00-.336-1.107L21.287.092a.747.747 0 00-.72 0L1.35 10.592a.824.824 0 00-.422.73c0 .312.164.582.422.73l7.534 4.118L1.35 20.27a.824.824 0 00-.422.73c0 .303.164.582.422.73l7.534 4.118-7.534 4.11a.824.824 0 00-.422.73c0 .303.164.582.422.73l19.219 10.49c.11.066.234.091.36.091.124 0 .25-.033.359-.09l19.218-10.491a.824.824 0 00.422-.73.843.843 0 00-.422-.73l-7.534-4.118 7.534-4.118a.82.82 0 00.422-.722zm-19.64 1.534l9.988-5.455 2.33 1.272-17.492 9.588-3.118-1.706 7.174-3.92.399.22a.69.69 0 00.36.091.621.621 0 00.359-.09zm-2.814-1.14l-7.174 3.92-3.103-1.697 7.174-3.921 3.103 1.698zM10.58 17.08l3.102 1.698L6.508 22.7l-3.103-1.698 7.174-3.92zm10.347 13.494l-3.126-1.707L35.3 19.28 38.458 21l-17.53 9.573z" fill="#CCF0EE"/></g><defs><filter id="wfilter0_i_293:958" x=".927" y="0" width="45" height="47" filterUnits="userSpaceOnUse" color-interpolation-filters="sRGB"><feFlood flood-opacity="0" result="BackgroundImageFix"/><feBlend in="SourceGraphic" in2="BackgroundImageFix" result="shape"/><feColorMatrix in="SourceAlpha" values="0 0 0 0 0 0 0 0 0 0 0 0 0 0 0 0 0 0 127 0" result="hardAlpha"/><feOffset dx="5" dy="5"/><feGaussianBlur stdDeviation="5"/><feComposite in2="hardAlpha" operator="arithmetic" k2="-1" k3="1"/><feColorMatrix values="0 0 0 0 0.8 0 0 0 0 0.941176 0 0 0 0 0.933333 0 0 0 1 0"/><feBlend mode="multiply" in2="shape" result="effect1_innerShadow_293:958"/></filter></defs></svg><svg fill="none" viewBox="0 0 120 632" id="product-icon" xmlns="http://www.w3.org/2000/svg"><g filter="url(#xfilter0_i_293:903)"><path d="M120 89.97c-.394-23.087-1.028-51.137-1.028-51.137s.48-30.078-27.679-37.361A44.413 44.413 0 0081.667.218 704.542 704.542 0 0060 .012c-3.032.017-11.784 0-21.667.206a44.277 44.277 0 00-9.626 1.254C.548 8.755 1.01 38.832 1.01 38.832S.394 66.883 0 89.97v3.075c.394 47.135 1.01 500.152 1.01 500.152s-.479 30.078 27.697 37.361c3.153.77 6.381 1.19 9.626 1.254 4.265.103 8.307.172 11.784.189a21.419 21.419 0 019.506-2.439c3.657-.111 7.28.729 10.517 2.439 3.425 0 7.33-.086 11.459-.189a44.257 44.257 0 009.626-1.254c28.158-7.283 27.679-37.361 27.679-37.361s.634-453.017 1.028-500.152L120 89.97z" fill="#CCF0EE"/></g><path d="M61.851 298.743c.017.165.017.332 0 .498a2.617 2.617 0 01-.154.481 2.036 2.036 0 01-.223.429c-.093.134-.196.26-.308.378-.12.118-.251.222-.394.309a1.586 1.586 0 01-.445.241 2.304 2.304 0 01-.48.155 2.425 2.425 0 01-.497 0 2.425 2.425 0 01-.496 0l-.48-.138-.445-.24a2.46 2.46 0 01-.685-.687 2.33 2.33 0 01-.257-.447 4.74 4.74 0 01-.137-.464 2.576 2.576 0 010-.515 2.41 2.41 0 010-.498c0-.155 0-.327.137-.481l.24-.43c.094-.137.204-.264.325-.378a2.12 2.12 0 01.377-.309c.139-.097.288-.177.445-.24.152-.069.314-.116.48-.138h.496c.166-.018.332-.018.497 0 .166.02.328.066.48.138l.428.223c.284.185.529.424.72.704.085.138.154.292.222.43.067.155.118.316.154.481a2.41 2.41 0 010 .498z" fill="#fff"/><path d="M112.738 40.018s.479-30.541-30.094-34.355c-10.089-.343-19.51-.309-22.541-.292-3.032.017-12.47 0-22.558.292C6.971 9.477 7.451 40.018 7.451 40.018s-.582 26.539-.942 47.444a9.782 9.782 0 00.582 3.435c8.855 23.585 29.906 23.327 29.906 23.327h46.246s21.051.258 29.906-23.327a9.424 9.424 0 00.582-3.435c-.394-20.94-.993-47.444-.993-47.444z" fill="#F9F9F9"/><path d="M59.25 338.303h7.504c.633-.009 1.052.444 1.052 1.114 0 .67-.42 1.114-1.052 1.114l-7.232-.009c-3.583 0-5.095 1.584-5.095 5.431l.008 2.803c-.008.67-.419 1.114-1.052 1.114s-1.06-.444-1.052-1.114v-3.125c-.008-4.691 2.49-7.337 6.92-7.328zm8.432 37.737v1.619c0 4.691-2.481 7.311-6.92 7.319h-7.518c-.633-.008-1.044-.443-1.044-1.114 0-.67.41-1.122 1.044-1.114l7.24-.017c3.59.009 5.078-1.567 5.078-5.405v-.957c0-3.838-1.479-5.431-5.078-5.431l-7.232.009c-.641-.009-1.052-.444-1.052-1.114 0-.67.41-1.123 1.052-1.114h7.51c4.439-.009 6.92 2.628 6.92 7.319zm0-48.72v1.618c0 4.456-2.243 7.311-6.467 7.311-4.191 0-6.476-2.855-6.468-7.311v-3.202c-.008-.679.42-1.114 1.052-1.114.633 0 1.044.435 1.052 1.114l-.008 2.872c0 3.603 1.29 5.404 4.372 5.404s4.347-1.801 4.347-5.404v-.958c0-3.838-1.479-5.431-5.078-5.431l-7.232.009c-.641-.009-1.052-.444-1.052-1.114 0-.67.41-1.123 1.052-1.114h7.51c4.439-.009 6.92 2.628 6.92 7.32zm0 67.206v1.619c0 4.691-2.481 7.319-6.92 7.319h-3.599c-.64-.009-1.068-.444-1.068-1.114 0-.67.428-1.123 1.069-1.114l3.328-.017c3.591.008 5.078-1.567 5.078-5.405v-.957c0-3.839-1.47-5.431-5.078-5.431h-.962c-3.6 0-5.095 1.584-5.095 5.431v6.17c0 1.593-.37 2.15-1.175 3.003l-.485.513c-.526.557-1.167.609-1.61.131-.453-.479-.428-1.132.188-1.776l.535-.565c.254-.279.452-.531.46-1.228v-6.588c-.008-4.682 2.482-7.319 6.92-7.319h1.503c4.43.008 6.911 2.637 6.911 7.328zm-7.199-42.072h-.961c-3.6 0-5.095 1.584-5.095 5.431v.958c0 3.838 1.496 5.404 5.095 5.404h.962c3.599 0 5.078-1.566 5.078-5.404v-.958c0-3.838-1.47-5.431-5.078-5.431zm7.2 5.101v1.618c0 4.691-2.482 7.32-6.92 7.32h-1.504c-4.438 0-6.92-2.629-6.92-7.32v-1.618c0-4.692 2.482-7.32 6.92-7.32h1.504c4.438 0 6.92 2.637 6.92 7.32z" fill="#fff"/><defs><filter id="xfilter0_i_293:903" x="0" y="0" width="125" height="637" filterUnits="userSpaceOnUse" color-interpolation-filters="sRGB"><feFlood flood-opacity="0" result="BackgroundImageFix"/><feBlend in="SourceGraphic" in2="BackgroundImageFix" result="shape"/><feColorMatrix in="SourceAlpha" values="0 0 0 0 0 0 0 0 0 0 0 0 0 0 0 0 0 0 127 0" result="hardAlpha"/><feOffset dx="5" dy="5"/><feGaussianBlur stdDeviation="5"/><feComposite in2="hardAlpha" operator="arithmetic" k2="-1" k3="1"/><feColorMatrix values="0 0 0 0 0.8 0 0 0 0 0.941176 0 0 0 0 0.933333 0 0 0 1 0"/><feBlend mode="multiply" in2="shape" result="effect1_innerShadow_293:903"/></filter></defs></svg><svg fill="none" viewBox="0 0 5 8" id="small-arrow" xmlns="http://www.w3.org/2000/svg"><path d="M1 1l3 3-3 3"/></svg><svg fill="none" viewBox="0 0 40 40" id="x" xmlns="http://www.w3.org/2000/svg"><path d="M28.452 28.312h-4.198l-3.935-6.234-3.935 6.234h-3.935L18.22 20l-5.509-7.792h4.198l3.673 5.974 3.672-5.974h3.936l-5.51 8.052 5.772 8.052z" fill="#000"/><path fill-rule="evenodd" clip-rule="evenodd" d="M26.357 3.117H13.764c-5.771 0-10.756 4.675-10.756 10.65v12.467c0 5.974 4.722 10.65 10.756 10.65h12.593c5.772 0 10.757-4.676 10.757-10.65V13.766c-.263-5.714-4.985-10.65-10.757-10.65zM13.764 0C6.156 0 .122 6.234.122 13.766v12.468C.122 33.766 6.156 40 13.764 40h12.593C33.965 40 40 33.766 40 26.234V13.766C40 6.234 33.965 0 26.357 0H13.764z" fill="#000"/></svg></svg>